<?xml version="1.0" encoding="utf-8"?>
<svg width="53" height="20" viewBox="0 0 53 20" fill="none" xmlns="http://www.w3.org/2000/svg">
<path d="M14.0564 7.30338C13.5003 8.11155 12.9279 8.99392 12.3392 9.95052C11.7668 10.9071 11.2189 11.7812 10.6956 12.5729C10.4666 12.8863 10.2213 13.1007 9.95966 13.2161C9.69799 13.3151 9.4118 13.3646 9.10107 13.3646C8.8394 13.3646 8.56138 13.3069 8.26701 13.1914C7.97263 13.076 7.7355 12.8615 7.5556 12.5482L4.24389 7.17969V17.4466C4.24389 18.1228 4.02311 18.6094 3.58155 18.9062C3.15635 19.2031 2.6739 19.3516 2.13421 19.3516C1.85619 19.3516 1.58635 19.3103 1.32468 19.2279C1.07937 19.1619 0.858591 19.0464 0.662342 18.8815C0.466092 18.7331 0.302551 18.5352 0.171718 18.2878C0.0572394 18.0569 0 17.7765 0 17.4466V2.45443C0 1.84418 0.212604 1.38238 0.637811 1.06901C1.07937 0.755642 1.57817 0.598957 2.13421 0.598957C2.47765 0.598957 2.78838 0.623697 3.0664 0.673176C3.34442 0.706163 3.59791 0.788628 3.82686 0.920572C4.05582 1.03602 4.2766 1.20095 4.48921 1.41536C4.70181 1.62977 4.91441 1.90191 5.12702 2.23177L9.10107 8.51562L13.2223 2.23177C13.6312 1.62153 14.04 1.20095 14.4489 0.970052C14.8741 0.722655 15.4465 0.598957 16.166 0.598957C16.7548 0.598957 17.2536 0.755642 17.6625 1.06901C18.0713 1.38238 18.2757 1.84418 18.2757 2.45443V17.4466C18.2757 17.7765 18.2103 18.0569 18.0795 18.2878C17.965 18.5352 17.8096 18.7331 17.6134 18.8815C17.4171 19.0464 17.1882 19.1619 16.9265 19.2279C16.6812 19.3103 16.4277 19.3516 16.166 19.3516C15.9044 19.3516 15.6427 19.3103 15.3811 19.2279C15.1357 19.1619 14.915 19.0464 14.7187 18.8815C14.5225 18.7331 14.3589 18.5352 14.2281 18.2878C14.1136 18.0569 14.0564 17.7765 14.0564 17.4466V7.30338Z" fill="url(#paint0_linear_464_2109)"/>
<path d="M31.1168 2.50391C31.1168 1.87717 31.3294 1.40712 31.7547 1.09375C32.1962 0.763888 32.695 0.598957 33.2511 0.598957C33.7907 0.598957 34.2732 0.763888 34.6984 1.09375C35.14 1.40712 35.3607 1.87717 35.3607 2.50391V13.612C35.3607 14.684 35.1645 15.5911 34.772 16.3333C34.3958 17.0755 33.8725 17.6775 33.202 18.1393C32.5478 18.6176 31.771 18.9557 30.8715 19.1536C29.9721 19.3681 29.0072 19.4753 27.9769 19.4753C26.8648 19.4753 25.8426 19.3516 24.9105 19.1042C23.9783 18.8733 23.1769 18.5352 22.5064 18.0898C21.8359 17.6445 21.3125 17.1085 20.9364 16.4818C20.5603 15.855 20.3722 15.1623 20.3722 14.4036C20.3722 13.7604 20.5521 13.3316 20.9119 13.1172C21.2717 12.8863 21.8195 12.7708 22.5555 12.7708C23.0788 12.7708 23.5449 12.8533 23.9537 13.0182C24.3626 13.1832 24.5834 13.5048 24.6161 13.9831C24.6324 14.3129 24.706 14.6263 24.8369 14.9232C24.9677 15.2036 25.1558 15.4592 25.4011 15.6901C25.6627 15.9045 25.9898 16.0777 26.3823 16.2096C26.7748 16.3416 27.2573 16.4076 27.8297 16.4076C28.8763 16.4076 29.6859 16.1849 30.2583 15.7396C30.8306 15.2943 31.1168 14.5851 31.1168 13.612V2.50391Z" fill="url(#paint1_linear_464_2109)"/>
<path d="M45.2481 16.4076C45.7388 16.4076 46.1967 16.3663 46.6219 16.2839C47.0635 16.2014 47.4396 16.0694 47.7503 15.888C48.0611 15.7066 48.3064 15.4757 48.4863 15.1953C48.6662 14.9149 48.7561 14.5851 48.7561 14.2057C48.7561 13.7769 48.6498 13.4058 48.4372 13.0924C48.2409 12.7791 47.9711 12.5069 47.6277 12.276C47.2842 12.0286 46.8917 11.8142 46.4502 11.6328C46.0086 11.4514 45.5507 11.2782 45.0764 11.1133C44.3405 10.8494 43.58 10.569 42.795 10.2721C42.0264 9.95877 41.3232 9.59592 40.6853 9.18359C40.0639 8.75477 39.5487 8.25174 39.1399 7.67448C38.7474 7.09722 38.5511 6.40451 38.5511 5.59635C38.5511 4.60677 38.7883 3.79036 39.2625 3.14714C39.7368 2.48741 40.3419 1.96788 41.0778 1.58854C41.8138 1.19271 42.6397 0.912326 43.5555 0.747396C44.4713 0.582465 45.3708 0.5 46.2539 0.5C46.6955 0.5 47.1861 0.524739 47.7258 0.574218C48.2655 0.607204 48.7888 0.673177 49.2958 0.772135C49.8191 0.871093 50.3016 0.994791 50.7431 1.14323C51.201 1.29167 51.5527 1.47309 51.798 1.6875C51.9942 1.85243 52.1251 2.05035 52.1905 2.28125C52.2722 2.49566 52.3131 2.69358 52.3131 2.875C52.2968 3.27083 52.1986 3.5842 52.0188 3.8151C51.8389 4.02951 51.6181 4.17795 51.3564 4.26042C51.1111 4.34288 50.8331 4.37587 50.5224 4.35937C50.228 4.34288 49.9581 4.28516 49.7128 4.1862C49.1077 3.98828 48.5353 3.82335 47.9956 3.69141C47.456 3.55946 46.8754 3.49349 46.2539 3.49349C45.2563 3.49349 44.4304 3.64193 43.7763 3.9388C43.1385 4.21918 42.8196 4.68924 42.8196 5.34896C42.8196 5.7283 42.9259 6.05816 43.1385 6.33854C43.3511 6.61892 43.6291 6.87457 43.9725 7.10547C44.3323 7.31988 44.7412 7.51779 45.1991 7.69922C45.6734 7.88064 46.164 8.05382 46.671 8.21875L48.0202 8.6888C48.6416 8.91971 49.2467 9.18359 49.8355 9.48047C50.4406 9.77734 50.9721 10.1319 51.43 10.5443C51.9043 10.9566 52.2804 11.4349 52.5584 11.9792C52.8528 12.5234 53 13.1584 53 13.8841C53 14.8407 52.8119 15.6736 52.4358 16.3828C52.0596 17.092 51.5281 17.6775 50.8413 18.1393C50.1707 18.6011 49.3694 18.9392 48.4372 19.1536C47.505 19.3846 46.4829 19.5 45.3708 19.5C43.7354 19.5 42.3535 19.3021 41.225 18.9062C40.0966 18.5104 39.2707 18.0486 38.7474 17.5208C38.5838 17.3889 38.4612 17.2322 38.3794 17.0508C38.2976 16.8694 38.2486 16.6879 38.2322 16.5065C38.1995 16.2096 38.2322 15.9457 38.3304 15.7148C38.4285 15.4839 38.5593 15.2943 38.7229 15.1458C38.9027 14.9974 39.099 14.8902 39.3116 14.8242C39.5242 14.7418 39.745 14.7005 39.9739 14.7005C40.2193 14.7005 40.4646 14.7418 40.7099 14.8242C40.9715 14.9067 41.1923 15.0221 41.3722 15.1706C41.6339 15.352 41.8874 15.5169 42.1327 15.6654C42.378 15.8138 42.6478 15.9457 42.9422 16.0612C43.2366 16.1602 43.5718 16.2426 43.948 16.3086C44.3241 16.3746 44.7575 16.4076 45.2481 16.4076Z" fill="url(#paint2_linear_464_2109)"/>
<defs>
<linearGradient id="paint0_linear_464_2109" x1="26.5" y1="0.5" x2="26.5" y2="55.5239" gradientUnits="userSpaceOnUse">
<stop stop-color="white"/>
<stop offset="1" stop-color="#6898DE"/>
</linearGradient>
<linearGradient id="paint1_linear_464_2109" x1="26.5" y1="0.5" x2="26.5" y2="55.5239" gradientUnits="userSpaceOnUse">
<stop stop-color="white"/>
<stop offset="1" stop-color="#6898DE"/>
</linearGradient>
<linearGradient id="paint2_linear_464_2109" x1="26.5" y1="0.5" x2="26.5" y2="55.5239" gradientUnits="userSpaceOnUse">
<stop stop-color="white"/>
<stop offset="1" stop-color="#6898DE"/>
</linearGradient>
</defs>
</svg>
