<svg width="256" height="195" viewBox="0 0 256 195" fill="none" xmlns="http://www.w3.org/2000/svg">
<path d="M150.255 89.831C148.746 92.0069 147.191 94.3826 145.593 96.9582C144.039 99.5337 142.551 101.887 141.13 104.019C140.508 104.862 139.842 105.44 139.132 105.751C138.421 106.017 137.644 106.15 136.8 106.15C136.09 106.15 135.335 105.995 134.536 105.684C133.736 105.373 133.093 104.796 132.604 103.952L123.612 89.498V117.141C123.612 118.961 123.012 120.271 121.813 121.071C120.659 121.87 119.349 122.269 117.884 122.269C117.129 122.269 116.396 122.158 115.685 121.936C115.019 121.759 114.42 121.448 113.887 121.004C113.354 120.604 112.91 120.071 112.555 119.405C112.244 118.784 112.089 118.029 112.089 117.141V76.7757C112.089 75.1327 112.666 73.8894 113.82 73.0456C115.019 72.2019 116.374 71.7801 117.884 71.7801C118.816 71.7801 119.66 71.8467 120.415 71.9799C121.17 72.0687 121.858 72.2907 122.48 72.646C123.101 72.9568 123.701 73.4009 124.278 73.9782C124.855 74.5554 125.433 75.2881 126.01 76.1762L136.8 93.0949L147.991 76.1762C149.101 74.5332 150.211 73.4009 151.321 72.7792C152.476 72.1131 154.03 71.7801 155.984 71.7801C157.582 71.7801 158.937 72.2019 160.047 73.0456C161.157 73.8894 161.712 75.1327 161.712 76.7757V117.141C161.712 118.029 161.534 118.784 161.179 119.405C160.868 120.071 160.447 120.604 159.914 121.004C159.381 121.448 158.759 121.759 158.049 121.936C157.383 122.158 156.694 122.269 155.984 122.269C155.273 122.269 154.563 122.158 153.852 121.936C153.186 121.759 152.587 121.448 152.054 121.004C151.521 120.604 151.077 120.071 150.722 119.405C150.411 118.784 150.255 118.029 150.255 117.141V89.831Z" fill="url(#paint0_linear_4113_18953)"/>
<path d="M196.579 76.9089C196.579 75.2215 197.156 73.956 198.311 73.1122C199.51 72.2241 200.864 71.7801 202.374 71.7801C203.84 71.7801 205.149 72.2241 206.304 73.1122C207.503 73.956 208.102 75.2215 208.102 76.9089V106.816C208.102 109.703 207.57 112.145 206.504 114.143C205.483 116.141 204.062 117.762 202.241 119.006C200.465 120.293 198.355 121.204 195.913 121.737C193.471 122.314 190.851 122.603 188.053 122.603C185.034 122.603 182.258 122.269 179.727 121.603C177.196 120.982 175.02 120.071 173.2 118.872C171.379 117.673 169.958 116.23 168.937 114.543C167.915 112.855 167.405 110.99 167.405 108.948C167.405 107.216 167.893 106.061 168.87 105.484C169.847 104.862 171.334 104.552 173.333 104.552C174.754 104.552 176.019 104.774 177.129 105.218C178.24 105.662 178.839 106.528 178.928 107.815C178.972 108.703 179.172 109.547 179.527 110.347C179.883 111.101 180.393 111.79 181.059 112.411C181.77 112.989 182.658 113.455 183.724 113.81C184.789 114.165 186.099 114.343 187.654 114.343C190.496 114.343 192.694 113.744 194.248 112.545C195.802 111.346 196.579 109.436 196.579 106.816V76.9089Z" fill="url(#paint1_linear_4113_18953)"/>
<path d="M234.949 114.343C236.282 114.343 237.525 114.232 238.68 114.01C239.878 113.788 240.9 113.433 241.743 112.944C242.587 112.456 243.253 111.834 243.742 111.079C244.23 110.324 244.474 109.436 244.474 108.415C244.474 107.26 244.186 106.261 243.609 105.417C243.076 104.574 242.343 103.841 241.41 103.219C240.478 102.553 239.412 101.976 238.213 101.488C237.014 100.999 235.771 100.533 234.483 100.089C232.485 99.3783 230.42 98.6234 228.289 97.8241C226.201 96.9804 224.292 96.0034 222.56 94.8933C220.873 93.7387 219.474 92.3844 218.364 90.8302C217.298 89.276 216.765 87.4109 216.765 85.235C216.765 82.5707 217.409 80.3726 218.697 78.6408C219.985 76.8645 221.628 75.4658 223.626 74.4444C225.624 73.3787 227.867 72.6238 230.353 72.1797C232.84 71.7357 235.282 71.5136 237.68 71.5136C238.879 71.5136 240.212 71.5802 241.677 71.7135C243.142 71.8023 244.563 71.9799 245.94 72.2463C247.361 72.5128 248.671 72.8458 249.87 73.2455C251.113 73.6451 252.068 74.1336 252.734 74.7109C253.267 75.1549 253.622 75.6878 253.8 76.3095C254.022 76.8867 254.133 77.4196 254.133 77.9081C254.088 78.9738 253.822 79.8175 253.333 80.4392C252.845 81.0165 252.245 81.4161 251.535 81.6382C250.869 81.8602 250.114 81.949 249.27 81.9046C248.471 81.8602 247.738 81.7048 247.072 81.4383C245.429 80.9055 243.875 80.4614 242.41 80.1062C240.944 79.7509 239.368 79.5733 237.68 79.5733C234.972 79.5733 232.729 79.9729 230.953 80.7723C229.221 81.5271 228.355 82.7927 228.355 84.5689C228.355 85.5903 228.644 86.4784 229.221 87.2333C229.798 87.9882 230.553 88.6765 231.486 89.2982C232.463 89.8754 233.573 90.4083 234.816 90.8968C236.104 91.3852 237.436 91.8515 238.813 92.2956L242.476 93.5611C244.164 94.1828 245.807 94.8933 247.405 95.6926C249.048 96.4919 250.491 97.4466 251.735 98.5568C253.023 99.6669 254.044 100.955 254.799 102.42C255.598 103.885 255.998 105.595 255.998 107.549C255.998 110.124 255.487 112.367 254.466 114.276C253.444 116.186 252.001 117.762 250.136 119.006C248.316 120.249 246.14 121.159 243.609 121.737C241.077 122.358 238.302 122.669 235.282 122.669C230.842 122.669 227.09 122.136 224.026 121.071C220.962 120.005 218.719 118.761 217.298 117.34C216.854 116.985 216.521 116.563 216.299 116.075C216.077 115.586 215.944 115.098 215.899 114.609C215.811 113.81 215.899 113.1 216.166 112.478C216.432 111.856 216.787 111.346 217.231 110.946C217.72 110.546 218.253 110.258 218.83 110.08C219.407 109.858 220.007 109.747 220.629 109.747C221.295 109.747 221.961 109.858 222.627 110.08C223.337 110.302 223.937 110.613 224.425 111.013C225.136 111.501 225.824 111.945 226.49 112.345C227.156 112.744 227.889 113.1 228.688 113.411C229.487 113.677 230.398 113.899 231.419 114.077C232.44 114.254 233.617 114.343 234.949 114.343Z" fill="url(#paint2_linear_4113_18953)"/>
<path d="M86.3196 133.665L18.8923 191.46C14.2372 195.45 7.22767 194.912 3.23756 190.257C-0.751671 185.602 -0.213036 178.597 4.44094 174.607L71.8736 116.807L86.3196 133.665Z" fill="url(#paint3_linear_4113_18953)"/>
<path d="M78.4208 56.1836C82.6844 43.1851 90.3675 40.5596 104.738 43.2879C104.878 43.3158 104.974 43.4559 104.949 43.5969C102.46 57.3657 94.5637 63.2751 79.0388 59.0836C75.5892 65.0108 73.0404 71.599 71.6234 78.7009C64.7269 113.273 87.1648 146.895 121.737 153.793C140.79 157.592 159.545 152.469 173.705 141.331C155.745 158.961 128.253 165.027 103.676 154.525C71.1653 140.629 56.0709 103.011 69.9647 70.4994C72.2051 65.2572 75.0665 60.4699 78.4208 56.1836Z" fill="#4782DA"/>
<path d="M143.956 18.1741C152.126 1.62392 160.598 -3.50785 177.819 3.38121C177.928 3.42476 177.985 3.55334 177.944 3.66308C170.81 22.6328 159.317 26.2237 144.054 18.4668C143.949 18.4134 143.904 18.2799 143.956 18.1741Z" fill="#4782DA"/>
<path d="M98.8279 18.6482C129.163 10.551 160.122 22.3 177.926 45.9193C165.513 33.5207 148.752 25.9547 130.918 25.1312C140.047 30.0228 142.014 38.285 138.393 49.4319C138.356 49.5423 138.234 49.6074 138.122 49.5729C123.694 45.0592 117.73 38.983 119.724 25.5107C116.255 25.903 112.77 26.5507 109.295 27.4784C71.3574 37.6062 48.8117 76.5686 58.9375 114.507C66.0061 140.986 87.1247 159.962 112.136 165.569C81.4403 163.103 54.216 141.713 45.8195 110.262C35.1589 70.3266 58.8923 29.309 98.8279 18.6482Z" fill="#124CA5"/>
<path d="M181.948 45.1821C186.877 44.6174 197.433 44.4113 202.628 48.4508C207.314 52.096 213.129 59.9723 212.91 62.4252C211.443 64.4596 198.97 65.3134 193.613 62.6854C186.898 59.387 180.706 49.1398 179.509 46.3747C179.549 46.4161 179.587 46.4637 179.628 46.5048C183.475 50.3346 188.982 51.4428 193.412 49.7138C189.647 49.8378 185.426 48.2762 181.948 45.1821Z" fill="#124CA5"/>
<defs>
<linearGradient id="paint0_linear_4113_18953" x1="184.043" y1="71.5136" x2="184.043" y2="122.669" gradientUnits="userSpaceOnUse">
<stop stop-color="#124CA5"/>
<stop offset="1" stop-color="#002968"/>
</linearGradient>
<linearGradient id="paint1_linear_4113_18953" x1="184.043" y1="71.5136" x2="184.043" y2="122.669" gradientUnits="userSpaceOnUse">
<stop stop-color="#124CA5"/>
<stop offset="1" stop-color="#002968"/>
</linearGradient>
<linearGradient id="paint2_linear_4113_18953" x1="184.043" y1="71.5136" x2="184.043" y2="122.669" gradientUnits="userSpaceOnUse">
<stop stop-color="#124CA5"/>
<stop offset="1" stop-color="#002968"/>
</linearGradient>
<linearGradient id="paint3_linear_4113_18953" x1="59.8452" y1="122.358" x2="68.1713" y2="116.807" gradientUnits="userSpaceOnUse">
<stop stop-color="#124CA5"/>
<stop offset="1" stop-color="#4782DA"/>
</linearGradient>
</defs>
</svg>
