<svg width="256" height="195" viewBox="0 0 256 195" fill="none" xmlns="http://www.w3.org/2000/svg">
<path d="M149.908 95.5267C148.398 97.7026 146.844 100.078 145.245 102.654C143.691 105.229 142.204 107.583 140.783 109.714C140.161 110.558 139.495 111.135 138.784 111.446C138.074 111.713 137.297 111.846 136.453 111.846C135.743 111.846 134.988 111.69 134.188 111.38C133.389 111.069 132.745 110.491 132.257 109.648L123.265 95.1936V122.836C123.265 124.657 122.665 125.967 121.466 126.766C120.312 127.565 119.002 127.965 117.536 127.965C116.781 127.965 116.049 127.854 115.338 127.632C114.672 127.454 114.073 127.144 113.54 126.7C113.007 126.3 112.563 125.767 112.207 125.101C111.897 124.479 111.741 123.724 111.741 122.836V82.4714C111.741 80.8284 112.318 79.585 113.473 78.7413C114.672 77.8976 116.026 77.4757 117.536 77.4757C118.469 77.4757 119.312 77.5423 120.067 77.6755C120.822 77.7644 121.51 77.9864 122.132 78.3416C122.754 78.6525 123.353 79.0965 123.931 79.6738C124.508 80.2511 125.085 80.9838 125.662 81.8719L136.453 98.7905L147.643 81.8719C148.753 80.2289 149.864 79.0965 150.974 78.4749C152.128 77.8088 153.682 77.4757 155.636 77.4757C157.235 77.4757 158.589 77.8976 159.699 78.7413C160.81 79.585 161.365 80.8284 161.365 82.4714V122.836C161.365 123.724 161.187 124.479 160.832 125.101C160.521 125.767 160.099 126.3 159.566 126.7C159.033 127.144 158.412 127.454 157.701 127.632C157.035 127.854 156.347 127.965 155.636 127.965C154.926 127.965 154.215 127.854 153.505 127.632C152.839 127.454 152.239 127.144 151.706 126.7C151.174 126.3 150.73 125.767 150.374 125.101C150.063 124.479 149.908 123.724 149.908 122.836V95.5267Z" fill="url(#paint0_linear_4113_18963)"/>
<path d="M196.232 82.6046C196.232 80.9172 196.809 79.6516 197.964 78.8079C199.163 77.9198 200.517 77.4757 202.027 77.4757C203.492 77.4757 204.802 77.9198 205.957 78.8079C207.156 79.6516 207.755 80.9172 207.755 82.6046V112.512C207.755 115.398 207.222 117.841 206.156 119.839C205.135 121.837 203.714 123.458 201.893 124.701C200.117 125.989 198.008 126.899 195.566 127.432C193.123 128.01 190.503 128.298 187.706 128.298C184.686 128.298 181.911 127.965 179.38 127.299C176.849 126.677 174.673 125.767 172.852 124.568C171.031 123.369 169.61 121.926 168.589 120.239C167.568 118.551 167.057 116.686 167.057 114.643C167.057 112.912 167.546 111.757 168.523 111.18C169.499 110.558 170.987 110.247 172.985 110.247C174.406 110.247 175.672 110.469 176.782 110.913C177.892 111.357 178.492 112.223 178.58 113.511C178.625 114.399 178.825 115.243 179.18 116.042C179.535 116.797 180.046 117.485 180.712 118.107C181.422 118.684 182.311 119.151 183.376 119.506C184.442 119.861 185.752 120.039 187.306 120.039C190.148 120.039 192.346 119.439 193.9 118.24C195.455 117.041 196.232 115.132 196.232 112.512V82.6046Z" fill="url(#paint1_linear_4113_18963)"/>
<path d="M234.602 120.039C235.934 120.039 237.178 119.928 238.332 119.706C239.531 119.484 240.552 119.128 241.396 118.64C242.24 118.151 242.906 117.53 243.394 116.775C243.883 116.02 244.127 115.132 244.127 114.111C244.127 112.956 243.838 111.957 243.261 111.113C242.728 110.269 241.996 109.537 241.063 108.915C240.131 108.249 239.065 107.672 237.866 107.183C236.667 106.695 235.424 106.228 234.136 105.784C232.137 105.074 230.073 104.319 227.941 103.52C225.854 102.676 223.945 101.699 222.213 100.589C220.525 99.4344 219.127 98.08 218.016 96.5258C216.951 94.9716 216.418 93.1066 216.418 90.9307C216.418 88.2663 217.062 86.0682 218.349 84.3364C219.637 82.5602 221.28 81.1614 223.279 80.1401C225.277 79.0743 227.519 78.3194 230.006 77.8754C232.493 77.4313 234.935 77.2093 237.333 77.2093C238.532 77.2093 239.864 77.2759 241.329 77.4091C242.795 77.4979 244.216 77.6755 245.592 77.942C247.013 78.2084 248.323 78.5415 249.522 78.9411C250.766 79.3408 251.72 79.8292 252.387 80.4065C252.919 80.8506 253.275 81.3834 253.452 82.0051C253.674 82.5824 253.785 83.1153 253.785 83.6037C253.741 84.6695 253.474 85.5132 252.986 86.1349C252.498 86.7121 251.898 87.1118 251.188 87.3338C250.521 87.5558 249.767 87.6447 248.923 87.6002C248.124 87.5558 247.391 87.4004 246.725 87.134C245.082 86.6011 243.528 86.1571 242.062 85.8018C240.597 85.4466 239.02 85.2689 237.333 85.2689C234.624 85.2689 232.382 85.6686 230.605 86.4679C228.874 87.2228 228.008 88.4884 228.008 90.2646C228.008 91.2859 228.296 92.174 228.874 92.9289C229.451 93.6838 230.206 94.3721 231.138 94.9938C232.115 95.5711 233.225 96.104 234.469 96.5924C235.757 97.0809 237.089 97.5471 238.465 97.9912L242.129 99.2568C243.816 99.8785 245.459 100.589 247.058 101.388C248.701 102.188 250.144 103.142 251.387 104.252C252.675 105.363 253.697 106.65 254.451 108.116C255.251 109.581 255.65 111.291 255.65 113.245C255.65 115.82 255.14 118.063 254.118 119.972C253.097 121.882 251.654 123.458 249.789 124.701C247.968 125.945 245.792 126.855 243.261 127.432C240.73 128.054 237.955 128.365 234.935 128.365C230.494 128.365 226.742 127.832 223.678 126.766C220.614 125.7 218.372 124.457 216.951 123.036C216.507 122.681 216.174 122.259 215.952 121.771C215.73 121.282 215.596 120.794 215.552 120.305C215.463 119.506 215.552 118.795 215.818 118.174C216.085 117.552 216.44 117.041 216.884 116.642C217.373 116.242 217.905 115.953 218.483 115.776C219.06 115.554 219.659 115.443 220.281 115.443C220.947 115.443 221.613 115.554 222.279 115.776C222.99 115.998 223.589 116.309 224.078 116.708C224.788 117.197 225.477 117.641 226.143 118.04C226.809 118.44 227.541 118.795 228.341 119.106C229.14 119.373 230.05 119.595 231.072 119.772C232.093 119.95 233.27 120.039 234.602 120.039Z" fill="url(#paint2_linear_4113_18963)"/>
<path d="M85.9717 133.81L18.5444 191.605C13.8893 195.595 6.87977 195.057 2.88966 190.401C-1.09957 185.747 -0.560937 178.742 4.09304 174.752L71.5257 116.952L85.9717 133.81Z" fill="url(#paint3_linear_4113_18963)"/>
<path d="M78.0727 56.3285C82.3362 43.33 90.0193 40.7045 104.39 43.4328C104.53 43.4607 104.626 43.6008 104.601 43.7418C102.112 57.5106 94.2156 63.42 78.6906 59.2285C75.2411 65.1557 72.6923 71.7439 71.2752 78.8457C64.3788 113.418 86.8166 147.04 121.389 153.938C140.441 157.737 159.197 152.614 173.357 141.476C155.397 159.106 127.905 165.172 103.327 154.67C70.8172 140.774 55.7228 103.156 69.6165 70.6443C71.857 65.4021 74.7183 60.6148 78.0727 56.3285Z" fill="url(#paint4_linear_4113_18963)"/>
<path d="M143.608 18.319C151.778 1.76882 160.25 -3.36295 177.471 3.5261C177.58 3.56965 177.637 3.69823 177.595 3.80798C170.462 22.7777 158.969 26.3686 143.706 18.6117C143.601 18.5583 143.556 18.4248 143.608 18.319Z" fill="url(#paint5_linear_4113_18963)"/>
<path d="M98.4797 18.7931C128.815 10.6959 159.774 22.4449 177.578 46.0642C165.165 33.6656 148.404 26.0996 130.57 25.2761C139.699 30.1677 141.666 38.4299 138.045 49.5768C138.007 49.6872 137.885 49.7523 137.774 49.7178C123.346 45.2041 117.382 39.1279 119.376 25.6556C115.907 26.0479 112.422 26.6956 108.947 27.6233C71.0093 37.7511 48.4635 76.7135 58.5893 114.651C65.6579 141.131 86.7765 160.107 111.787 165.714C81.0922 163.248 53.8679 141.858 45.4714 110.407C34.8108 70.4715 58.5442 29.4539 98.4797 18.7931Z" fill="#6898DE"/>
<path d="M181.6 45.327C186.529 44.7623 197.084 44.5562 202.279 48.5957C206.966 52.2409 212.781 60.1172 212.562 62.5701C211.094 64.6045 198.622 65.4583 193.265 62.8303C186.55 59.5319 180.358 49.2847 179.16 46.5196C179.201 46.561 179.238 46.6086 179.28 46.6497C183.127 50.4795 188.634 51.5877 193.064 49.8587C189.299 49.9827 185.078 48.4211 181.6 45.327Z" fill="#6898DE"/>
<defs>
<linearGradient id="paint0_linear_4113_18963" x1="183.696" y1="77.2093" x2="183.696" y2="225.355" gradientUnits="userSpaceOnUse">
<stop stop-color="white"/>
<stop offset="1" stop-color="#6898DE"/>
</linearGradient>
<linearGradient id="paint1_linear_4113_18963" x1="183.696" y1="77.2093" x2="183.696" y2="225.355" gradientUnits="userSpaceOnUse">
<stop stop-color="white"/>
<stop offset="1" stop-color="#6898DE"/>
</linearGradient>
<linearGradient id="paint2_linear_4113_18963" x1="183.696" y1="77.2093" x2="183.696" y2="225.355" gradientUnits="userSpaceOnUse">
<stop stop-color="white"/>
<stop offset="1" stop-color="#6898DE"/>
</linearGradient>
<linearGradient id="paint3_linear_4113_18963" x1="66.3908" y1="133.281" x2="75.1521" y2="128.217" gradientUnits="userSpaceOnUse">
<stop stop-color="#6898DE"/>
<stop offset="1" stop-color="#8EB2E7"/>
</linearGradient>
<linearGradient id="paint4_linear_4113_18963" x1="127.745" y1="0.55072" x2="127.745" y2="165.714" gradientUnits="userSpaceOnUse">
<stop stop-color="white"/>
<stop offset="1" stop-color="#6898DE"/>
</linearGradient>
<linearGradient id="paint5_linear_4113_18963" x1="127.745" y1="0.55072" x2="127.745" y2="165.714" gradientUnits="userSpaceOnUse">
<stop stop-color="white"/>
<stop offset="1" stop-color="#6898DE"/>
</linearGradient>
</defs>
</svg>
