<svg width="512" height="512" viewBox="0 0 512 512" fill="none" xmlns="http://www.w3.org/2000/svg">
<rect width="512" height="512" rx="92" fill="url(#paint0_linear_68_3906)"/>
<path d="M290.086 258.929C287.744 262.304 285.333 265.99 282.853 269.985C280.442 273.98 278.135 277.631 275.93 280.938C274.966 282.247 273.933 283.142 272.83 283.624C271.728 284.038 270.523 284.244 269.214 284.244C268.112 284.244 266.941 284.003 265.701 283.521C264.461 283.039 263.462 282.143 262.704 280.834L248.755 258.412V301.293C248.755 304.118 247.825 306.15 245.965 307.39C244.174 308.63 242.142 309.25 239.869 309.25C238.698 309.25 237.561 309.077 236.459 308.733C235.426 308.457 234.496 307.975 233.669 307.286C232.842 306.666 232.154 305.84 231.602 304.807C231.12 303.842 230.879 302.671 230.879 301.293V238.677C230.879 236.128 231.775 234.199 233.566 232.89C235.426 231.581 237.527 230.927 239.869 230.927C241.315 230.927 242.624 231.03 243.795 231.237C244.966 231.375 246.034 231.719 246.998 232.27C247.963 232.752 248.893 233.441 249.788 234.337C250.684 235.232 251.579 236.369 252.475 237.747L269.214 263.992L286.573 237.747C288.295 235.198 290.017 233.441 291.739 232.477C293.53 231.444 295.941 230.927 298.972 230.927C301.452 230.927 303.553 231.581 305.275 232.89C306.998 234.199 307.859 236.128 307.859 238.677V301.293C307.859 302.671 307.583 303.842 307.032 304.807C306.55 305.84 305.895 306.666 305.069 307.286C304.242 307.975 303.278 308.457 302.176 308.733C301.142 309.077 300.075 309.25 298.972 309.25C297.87 309.25 296.768 309.077 295.666 308.733C294.633 308.457 293.703 307.975 292.876 307.286C292.049 306.666 291.361 305.84 290.809 304.807C290.327 303.842 290.086 302.671 290.086 301.293V258.929Z" fill="url(#paint1_linear_68_3906)"/>
<path d="M361.947 238.883C361.947 236.266 362.842 234.302 364.633 232.994C366.493 231.616 368.594 230.927 370.936 230.927C373.21 230.927 375.242 231.616 377.033 232.994C378.893 234.302 379.823 236.266 379.823 238.883V285.278C379.823 289.755 378.996 293.544 377.343 296.644C375.758 299.743 373.554 302.258 370.73 304.187C367.974 306.184 364.702 307.596 360.914 308.423C357.125 309.319 353.061 309.766 348.721 309.766C344.037 309.766 339.731 309.25 335.805 308.216C331.878 307.252 328.503 305.84 325.679 303.98C322.854 302.12 320.65 299.881 319.066 297.264C317.481 294.646 316.689 291.753 316.689 288.584C316.689 285.898 317.447 284.107 318.962 283.211C320.478 282.247 322.785 281.764 325.885 281.764C328.09 281.764 330.053 282.109 331.775 282.798C333.497 283.487 334.427 284.83 334.565 286.827C334.634 288.205 334.944 289.514 335.495 290.754C336.046 291.925 336.838 292.993 337.871 293.957C338.974 294.853 340.351 295.576 342.004 296.127C343.658 296.678 345.69 296.954 348.101 296.954C352.509 296.954 355.919 296.024 358.33 294.164C360.741 292.304 361.947 289.342 361.947 285.278V238.883Z" fill="url(#paint2_linear_68_3906)"/>
<path d="M421.469 296.954C423.536 296.954 425.465 296.781 427.256 296.437C429.116 296.093 430.7 295.541 432.009 294.784C433.318 294.026 434.351 293.062 435.109 291.891C435.866 290.72 436.245 289.342 436.245 287.757C436.245 285.966 435.798 284.416 434.902 283.108C434.075 281.799 432.939 280.662 431.492 279.698C430.046 278.665 428.392 277.769 426.532 277.011C424.673 276.254 422.744 275.53 420.746 274.841C417.646 273.739 414.443 272.568 411.137 271.328C407.899 270.019 404.937 268.504 402.25 266.782C399.633 264.991 397.463 262.89 395.741 260.479C394.087 258.068 393.261 255.175 393.261 251.799C393.261 247.666 394.26 244.256 396.257 241.57C398.255 238.814 400.804 236.644 403.904 235.06C407.003 233.407 410.482 232.236 414.34 231.547C418.197 230.858 421.986 230.514 425.706 230.514C427.566 230.514 429.632 230.617 431.906 230.824C434.179 230.961 436.383 231.237 438.519 231.65C440.723 232.064 442.755 232.58 444.615 233.2C446.544 233.82 448.025 234.578 449.058 235.473C449.885 236.162 450.436 236.989 450.711 237.953C451.056 238.849 451.228 239.675 451.228 240.433C451.159 242.086 450.746 243.395 449.988 244.36C449.23 245.255 448.3 245.875 447.198 246.22C446.165 246.564 444.994 246.702 443.685 246.633C442.445 246.564 441.308 246.323 440.275 245.91C437.726 245.083 435.315 244.394 433.042 243.843C430.769 243.292 428.324 243.016 425.706 243.016C421.504 243.016 418.025 243.636 415.27 244.876C412.583 246.047 411.24 248.011 411.24 250.766C411.24 252.35 411.688 253.728 412.583 254.899C413.479 256.07 414.65 257.138 416.096 258.102C417.612 258.998 419.334 259.824 421.263 260.582C423.26 261.34 425.327 262.063 427.462 262.752L433.145 264.715C435.763 265.68 438.312 266.782 440.792 268.022C443.341 269.262 445.579 270.743 447.508 272.465C449.506 274.187 451.09 276.185 452.261 278.458C453.501 280.731 454.121 283.383 454.121 286.414C454.121 290.41 453.329 293.888 451.745 296.85C450.16 299.812 447.921 302.258 445.028 304.187C442.204 306.115 438.829 307.528 434.902 308.423C430.976 309.387 426.67 309.87 421.986 309.87C415.098 309.87 409.277 309.043 404.524 307.39C399.771 305.737 396.292 303.808 394.087 301.603C393.399 301.052 392.882 300.398 392.538 299.64C392.193 298.882 391.986 298.125 391.918 297.367C391.78 296.127 391.918 295.025 392.331 294.06C392.744 293.096 393.295 292.304 393.984 291.684C394.742 291.064 395.569 290.616 396.464 290.341C397.36 289.996 398.289 289.824 399.254 289.824C400.287 289.824 401.32 289.996 402.354 290.341C403.456 290.685 404.386 291.167 405.144 291.787C406.246 292.545 407.313 293.234 408.347 293.854C409.38 294.474 410.517 295.025 411.757 295.507C412.997 295.92 414.409 296.265 415.993 296.54C417.577 296.816 419.403 296.954 421.469 296.954Z" fill="url(#paint3_linear_68_3906)"/>
<path d="M190.907 326.93L86.3088 416.585C79.0874 422.775 68.2137 421.94 62.024 414.718C55.8356 407.498 56.6712 396.632 63.8908 390.442L168.497 300.778L190.907 326.93Z" fill="url(#paint4_linear_68_3906)"/>
<path d="M178.654 206.735C185.268 186.571 197.186 182.498 219.479 186.731C219.696 186.774 219.844 186.991 219.807 187.21C215.944 208.569 203.696 217.736 179.612 211.234C174.261 220.429 170.307 230.649 168.109 241.666C157.411 295.297 192.218 347.454 245.849 358.154C275.405 364.048 304.499 356.101 326.465 338.822C298.605 366.17 255.958 375.582 217.831 359.289C167.398 337.733 143.983 279.377 165.536 228.943C169.011 220.811 173.45 213.385 178.654 206.735Z" fill="#4782DA"/>
<path d="M280.317 147.772C292.99 122.099 306.133 114.138 332.847 124.825C333.016 124.892 333.104 125.092 333.04 125.262C321.975 154.689 304.146 160.259 280.468 148.226C280.305 148.144 280.236 147.937 280.317 147.772Z" fill="#4782DA"/>
<path d="M210.311 148.508C257.369 135.947 305.394 154.173 333.013 190.813C313.757 171.579 287.756 159.842 260.091 158.565C274.252 166.153 277.304 178.97 271.687 196.262C271.629 196.433 271.439 196.534 271.266 196.48C248.885 189.478 239.633 180.053 242.727 159.153C237.345 159.762 231.939 160.767 226.548 162.206C167.696 177.917 132.722 238.358 148.43 297.21C159.395 338.287 192.156 367.723 230.954 376.422C183.338 372.596 141.106 339.414 128.08 290.626C111.543 228.675 148.36 165.046 210.311 148.508Z" fill="#124CA5"/>
<path d="M339.252 189.669C346.898 188.793 363.273 188.473 371.332 194.74C378.601 200.394 387.623 212.613 387.283 216.418C385.006 219.574 365.658 220.898 357.348 216.821C346.931 211.705 337.326 195.809 335.468 191.519C335.531 191.583 335.589 191.657 335.653 191.721C341.622 197.662 350.164 199.381 357.037 196.699C351.195 196.891 344.648 194.469 339.252 189.669Z" fill="#124CA5"/>
<defs>
<linearGradient id="paint0_linear_68_3906" x1="48.9739" y1="13.3565" x2="416.278" y2="500.87" gradientUnits="userSpaceOnUse">
<stop stop-color="#E2EEFF"/>
<stop offset="1" stop-color="white"/>
</linearGradient>
<linearGradient id="paint1_linear_68_3906" x1="342.5" y1="230.514" x2="342.5" y2="309.87" gradientUnits="userSpaceOnUse">
<stop stop-color="#124CA5"/>
<stop offset="1" stop-color="#002968"/>
</linearGradient>
<linearGradient id="paint2_linear_68_3906" x1="342.5" y1="230.514" x2="342.5" y2="309.87" gradientUnits="userSpaceOnUse">
<stop stop-color="#124CA5"/>
<stop offset="1" stop-color="#002968"/>
</linearGradient>
<linearGradient id="paint3_linear_68_3906" x1="342.5" y1="230.514" x2="342.5" y2="309.87" gradientUnits="userSpaceOnUse">
<stop stop-color="#124CA5"/>
<stop offset="1" stop-color="#002968"/>
</linearGradient>
<linearGradient id="paint4_linear_68_3906" x1="149.838" y1="309.389" x2="162.754" y2="300.778" gradientUnits="userSpaceOnUse">
<stop stop-color="#124CA5"/>
<stop offset="1" stop-color="#4782DA"/>
</linearGradient>
</defs>
</svg>
